<?xml version="1.0" standalone="no"?>
<!DOCTYPE svg PUBLIC "-//W3C//DTD SVG 20010904//EN"
 "http://www.w3.org/TR/2001/REC-SVG-20010904/DTD/svg10.dtd">
<svg version="1.0" xmlns="http://www.w3.org/2000/svg"
 width="512.000000pt" height="512.000000pt" viewBox="0 0 512.000000 512.000000"
 preserveAspectRatio="xMidYMid meet">

<g transform="translate(0.000000,512.000000) scale(0.100000,-0.100000)"
fill="#000000" stroke="none">
<path d="M1280 2560 l0 -1700 1920 0 1920 0 0 1700 0 1700 -1920 0 -1920 0 0
-1700z m1838 824 c-3 -3 -35 -12 -69 -20 -183 -42 -365 -187 -447 -354 -57
-115 -76 -194 -76 -315 -1 -124 13 -183 71 -305 39 -81 58 -108 132 -180 121
-120 236 -177 401 -200 253 -35 515 88 661 308 54 83 56 77 17 -48 -51 -162
-163 -315 -307 -422 -69 -52 -216 -121 -306 -144 -103 -26 -303 -24 -410 4
-563 151 -818 794 -510 1287 111 179 300 316 509 371 71 18 119 23 215 24 68
0 122 -3 119 -6z m710 -156 c26 11 76 34 111 51 36 17 67 29 69 26 2 -2 -23
-52 -56 -111 l-60 -108 84 -90 c46 -50 80 -92 74 -94 -5 -2 -55 6 -111 17 -56
12 -108 21 -115 21 -7 0 -39 -47 -71 -105 -32 -57 -61 -105 -64 -105 -4 0 -12
46 -18 103 -7 56 -14 112 -16 123 -4 19 -20 25 -125 45 -66 13 -120 25 -120
29 0 3 50 27 110 55 92 41 110 53 110 71 0 21 -14 140 -25 209 -4 27 5 20 85
-64 l90 -93 48 20z"/>
</g>
</svg>
